<svg width="20" height="16" viewBox="0 0 20 16" fill="none" xmlns="http://www.w3.org/2000/svg">
<path d="M19.3633 2.8V14H16.4833V6.32L11.8273 14H9.74732L5.09132 6.32V14H2.21132V2.8H6.09932L10.7873 10.704L15.4753 2.8H19.3633Z" fill="white"/>
<rect width="3.04663" height="0.842105" fill="white"/>
<rect x="8.37823" y="1.68421" width="1.68421" height="0.761656" transform="rotate(-90 8.37823 1.68421)" fill="white"/>
<rect x="12.9482" width="2.28497" height="0.842105" fill="white"/>
<rect width="4.57664" height="0.842101" transform="matrix(-0.999969 0.00781739 -0.00639516 -0.99998 16 14.3158)" fill="white"/>
<rect y="13.4737" width="1.53411" height="0.842105" fill="white"/>
<rect x="6.09325" y="13.4737" width="0.761656" height="0.842105" fill="white"/>
<rect y="2.52631" width="2.52632" height="0.761656" transform="rotate(-90 0 2.52631)" fill="white"/>
<rect width="2.5263" height="0.761661" transform="matrix(0.00639516 0.99998 -0.999969 0.00781739 0.761627 7.57895)" fill="white"/>
</svg>
